<?xml version="1.0" encoding="utf-8"?>
<svg xmlns="http://www.w3.org/2000/svg" viewBox="0 0 30 30" width="480" height="480">
  <path d="M20.5 5C18 5 15 6 15 6L18.28125 6.3691406C19.71825 6.9901406 20.749312 8.3430781 20.945312 9.9550781C22.113312 9.7450781 23 8.728 23 7.5C23 6.119 21.881 5 20.5 5 z M 16.5 8C16.131686 8 15.785488 8.0855854 15.470703 8.2285156L15.462891 8.2246094L9.4023438 11.253906L9.4023438 11.255859 A 2.5 2.5 0 0 0 8 13.5 A 2.5 2.5 0 0 0 9.3144531 15.699219L14 18.320312L14.001953 23.923828 A 1.0001 1.0001 0 1 0 15.988281 24.148438L16.988281 17.501953 A 1.0001 1.0001 0 0 0 16.638672 16.583984L16.595703 16.546875L13.626953 13.693359L17.019531 12.359375L18.078125 14.40625L18.083984 14.402344 A 1.0001 1.0001 0 0 0 19 15L23 15 A 1.0001 1.0001 0 1 0 23 13L19.769531 13L18.884766 9.75L18.871094 9.7441406C18.549265 8.7353842 17.615653 8 16.5 8 z M 7.5 18C5.015 18 3 20.015 3 22.5C3 24.985 5.015 27 7.5 27C9.985 27 12 24.985 12 22.5C12 20.015 9.985 18 7.5 18 z M 22.5 18C20.026563 18 18 20.026563 18 22.5C18 24.973437 20.026563 27 22.5 27C24.973437 27 27 24.973437 27 22.5C27 20.026563 24.973437 18 22.5 18 z M 22.5 20C23.892557 20 25 21.107443 25 22.5C25 23.892557 23.892557 25 22.5 25C21.107443 25 20 23.892557 20 22.5C20 21.107443 21.107443 20 22.5 20 z M 7.5 21C8.328 21 9 21.672 9 22.5C9 23.328 8.328 24 7.5 24C6.672 24 6 23.328 6 22.5C6 21.672 6.672 21 7.5 21 z" fill="#2D7FD2" />
</svg>